<svg width="800" height="260" viewBox="0 0 800 260" xmlns="http://www.w3.org/2000/svg">
  <rect width="800" height="260" fill="#000000"/>
  <rect x="40" y="50" width="160" height="160" rx="36" fill="#111111" stroke="#222222" stroke-width="1"/>
  <polygon points="72,82 168,82 168,106 108,106 168,154 168,178 72,178 72,154 132,154 72,106" fill="#ffffff"/>
  <polygon points="72,82 168,82 168,106 108,106 72,106" fill="#cccccc"/>
  <polygon points="132,154 168,154 168,178 72,178 72,154" fill="#cccccc"/>
  <polygon points="108,106 168,106 132,154 72,154" fill="#eeeeee"/>
  <text x="228" y="148" font-family="system-ui, -apple-system, sans-serif" font-size="88" font-weight="600" fill="#ffffff" letter-spacing="-4">ziro</text>
  <text x="230" y="182" font-family="system-ui, -apple-system, sans-serif" font-size="16" font-weight="400" fill="#555555" letter-spacing="1">your editor shouldn't slow you down.</text>
</svg>